<svg width="55" height="29" viewBox="0 0 55 29" fill="none" xmlns="http://www.w3.org/2000/svg">
<path d="M3.30484 1.38069L3.5078 0.923733C3.50759 0.923641 3.50739 0.92355 3.50718 0.923458C3.28851 0.826502 3.01781 0.79216 2.79426 0.789913C2.58027 0.78776 2.30012 0.813618 2.08188 0.923162C1.72951 1.0975 1.39806 1.43165 1.25662 1.79515C1.16819 2.01241 1.14704 2.26004 1.15956 2.47356C1.17228 2.69059 1.22335 2.93318 1.33172 3.13826L1.33655 3.14741L1.34176 3.15635C1.36586 3.19771 1.39183 3.22797 1.39724 3.23426L1.39782 3.23494C1.40762 3.24642 1.4168 3.25631 1.42328 3.26317C1.4366 3.27725 1.45144 3.29207 1.46559 3.30594C1.49458 3.33434 1.53329 3.37105 1.57957 3.41426C1.67278 3.5013 1.8056 3.62303 1.97264 3.77468C2.30719 4.07839 2.78437 4.50697 3.36846 5.02833C4.53689 6.0713 6.13594 7.48814 7.88342 9.02543C9.62972 10.5617 11.2167 11.9645 12.3669 12.9862C12.9421 13.4971 13.4076 13.9123 13.7289 14.2011C13.7631 14.2318 13.7956 14.261 13.8264 14.2887C13.7956 14.3164 13.7631 14.3457 13.7289 14.3764C13.4076 14.6651 12.9421 15.0803 12.3669 15.5913C11.2167 16.613 9.62972 18.0157 7.88342 19.552C6.13594 21.0893 4.53689 22.5061 3.36846 23.5491C2.78437 24.0705 2.30719 24.499 1.97264 24.8028C1.8056 24.9544 1.67278 25.0761 1.57957 25.1632C1.53329 25.2064 1.49458 25.2431 1.4656 25.2715C1.45144 25.2854 1.4366 25.3002 1.42328 25.3143C1.4168 25.3211 1.40762 25.331 1.39782 25.3425C1.39767 25.3427 1.39747 25.3429 1.39724 25.3432C1.39185 25.3494 1.36587 25.3797 1.34176 25.4211L1.3367 25.4298L1.33199 25.4387C1.23024 25.6307 1.18248 25.8677 1.16573 26.0664C1.14909 26.2637 1.15593 26.5074 1.22751 26.7148C1.35801 27.0928 1.70128 27.4633 2.05951 27.6434L2.06674 27.6471L2.06677 27.647C2.28957 27.7546 2.55588 27.792 2.7866 27.792C3.01978 27.792 3.2839 27.7538 3.50889 27.6532L3.51124 27.6522L3.51124 27.6522C3.565 27.6278 3.60976 27.595 3.61771 27.5892C3.61815 27.5889 3.61848 27.5886 3.61869 27.5885C3.63692 27.5754 3.65643 27.5605 3.67535 27.5456C3.71383 27.5155 3.76328 27.4754 3.82132 27.4274C3.93809 27.3309 4.09968 27.1945 4.29849 27.0249C4.69663 26.6852 5.25035 26.207 5.9068 25.6367C7.22003 24.4959 8.94787 22.9836 10.6721 21.4675C12.3962 19.9514 14.1175 18.4308 15.4176 17.2734C16.0675 16.6948 16.613 16.2062 17.0013 15.8541C17.1952 15.6782 17.3515 15.5349 17.4625 15.4309C17.5176 15.3792 17.564 15.335 17.599 15.3003C17.6163 15.2832 17.6338 15.2655 17.6493 15.2487C17.6495 15.2485 17.6498 15.2482 17.6502 15.2477C17.6572 15.2404 17.6917 15.2037 17.7216 15.1569L17.3 14.8881C17.3842 14.7561 17.4052 14.6291 17.4052 14.2786C17.4052 13.8722 17.3947 13.8264 17.2474 13.6283C17.0106 13.3134 3.55739 1.49245 3.30484 1.38069ZM3.30484 1.38069C3.04178 1.26385 2.52616 1.25877 2.30519 1.37053L3.30484 1.38069Z"/>
<path d="M21.4142 1.38167L21.6172 0.924709C21.617 0.924618 21.6168 0.924526 21.6166 0.924435C21.3979 0.827478 21.1272 0.793137 20.9036 0.79089C20.6896 0.788736 20.4095 0.814594 20.1913 0.924139C19.8389 1.09848 19.5074 1.43263 19.366 1.79613C19.2776 2.01339 19.2564 2.26102 19.2689 2.47453C19.2817 2.69157 19.3327 2.93415 19.4411 3.13924L19.4459 3.14839L19.4511 3.15733C19.4752 3.19869 19.5012 3.22894 19.5066 3.23524L19.5072 3.23592C19.517 3.24739 19.5262 3.25729 19.5327 3.26414C19.546 3.27823 19.5608 3.29305 19.575 3.30692C19.604 3.33532 19.6427 3.37203 19.6889 3.41524C19.7822 3.50227 19.915 3.624 20.082 3.77565C20.4166 4.07937 20.8937 4.50794 21.4778 5.02931C22.6463 6.07228 24.2453 7.48912 25.9928 9.02641C27.7391 10.5627 29.3261 11.9655 30.4763 12.9871C31.0515 13.4981 31.5169 13.9133 31.8383 14.202C31.8725 14.2327 31.905 14.262 31.9358 14.2897C31.905 14.3174 31.8725 14.3467 31.8383 14.3774C31.5169 14.6661 31.0515 15.0813 30.4763 15.5922C29.3261 16.6139 27.7391 18.0167 25.9928 19.553C24.2453 21.0903 22.6463 22.5071 21.4778 23.5501C20.8937 24.0714 20.4166 24.5 20.082 24.8037C19.915 24.9554 19.7822 25.0771 19.6889 25.1641C19.6427 25.2074 19.604 25.2441 19.575 25.2725C19.5608 25.2863 19.546 25.3012 19.5327 25.3152C19.5262 25.3221 19.517 25.332 19.5072 25.3435C19.507 25.3436 19.5068 25.3439 19.5066 25.3441C19.5012 25.3504 19.4752 25.3807 19.4511 25.4221L19.4461 25.4307L19.4414 25.4396C19.3396 25.6316 19.2919 25.8687 19.2751 26.0673C19.2585 26.2647 19.2653 26.5084 19.3369 26.7157C19.4674 27.0938 19.8107 27.4643 20.1689 27.6444L20.1761 27.6481L20.1761 27.648C20.3989 27.7556 20.6653 27.793 20.896 27.793C21.1292 27.793 21.3933 27.7548 21.6183 27.6542L21.6206 27.6531L21.6206 27.6531C21.6744 27.6288 21.7191 27.596 21.7271 27.5902C21.7275 27.5899 21.7279 27.5896 21.7281 27.5895C21.7463 27.5764 21.7658 27.5614 21.7847 27.5466C21.8232 27.5165 21.8727 27.4764 21.9307 27.4284C22.0475 27.3319 22.2091 27.1955 22.4079 27.0259C22.806 26.6862 23.3597 26.208 24.0162 25.6377C25.3294 24.4968 27.0572 22.9845 28.7814 21.4684C30.5056 19.9523 32.2269 18.4318 33.527 17.2744C34.1769 16.6958 34.7224 16.2072 35.1107 15.855C35.3046 15.6792 35.4609 15.5359 35.5718 15.4319C35.627 15.3802 35.6734 15.3359 35.7084 15.3012C35.7257 15.2841 35.7431 15.2664 35.7587 15.2497C35.7589 15.2495 35.7592 15.2492 35.7596 15.2487C35.7665 15.2414 35.8011 15.2047 35.831 15.1579L35.4094 14.8891C35.4936 14.757 35.5146 14.63 35.5146 14.2795C35.5146 13.8731 35.5041 13.8274 35.3568 13.6293C35.12 13.3144 21.6668 1.49342 21.4142 1.38167ZM21.4142 1.38167C21.1512 1.26483 20.6355 1.25975 20.4146 1.37151L21.4142 1.38167Z"/>
<path d="M39.5236 1.38167L39.7265 0.924709C39.7263 0.924618 39.7261 0.924526 39.7259 0.924435C39.5073 0.827478 39.2366 0.793137 39.013 0.79089C38.799 0.788736 38.5189 0.814594 38.3006 0.924139C37.9483 1.09848 37.6168 1.43263 37.4754 1.79613C37.3869 2.01339 37.3658 2.26102 37.3783 2.47453C37.391 2.69157 37.4421 2.93415 37.5505 3.13924L37.5553 3.14839L37.5605 3.15733C37.5846 3.19869 37.6106 3.22894 37.616 3.23524L37.6166 3.23592C37.6264 3.24739 37.6355 3.25729 37.642 3.26414C37.6554 3.27823 37.6702 3.29305 37.6843 3.30692C37.7133 3.33532 37.752 3.37203 37.7983 3.41524C37.8915 3.50227 38.0243 3.624 38.1914 3.77565C38.5259 4.07937 39.0031 4.50794 39.5872 5.02931C40.7556 6.07228 42.3547 7.48912 44.1022 9.02641C45.8485 10.5627 47.4355 11.9655 48.5857 12.9871C49.1609 13.4981 49.6263 13.9133 49.9477 14.202C49.9819 14.2327 50.0144 14.262 50.0451 14.2897C50.0144 14.3174 49.9819 14.3467 49.9477 14.3774C49.6263 14.6661 49.1609 15.0813 48.5857 15.5922C47.4355 16.6139 45.8485 18.0167 44.1022 19.553C42.3547 21.0903 40.7556 22.5071 39.5872 23.5501C39.0031 24.0714 38.5259 24.5 38.1914 24.8037C38.0243 24.9554 37.8915 25.0771 37.7983 25.1641C37.752 25.2074 37.7133 25.2441 37.6843 25.2725C37.6702 25.2863 37.6554 25.3012 37.642 25.3152C37.6355 25.3221 37.6264 25.332 37.6166 25.3435C37.6164 25.3436 37.6162 25.3439 37.616 25.3441C37.6106 25.3504 37.5846 25.3807 37.5605 25.4221L37.5554 25.4307L37.5507 25.4396C37.449 25.6316 37.4012 25.8687 37.3845 26.0673C37.3678 26.2647 37.3747 26.5084 37.4463 26.7157C37.5768 27.0938 37.92 27.4643 38.2783 27.6444L38.2855 27.6481L38.2855 27.648C38.5083 27.7556 38.7746 27.793 39.0054 27.793C39.2385 27.793 39.5026 27.7548 39.7276 27.6542L39.73 27.6531L39.73 27.6531C39.7837 27.6288 39.8285 27.596 39.8365 27.5902C39.8369 27.5899 39.8372 27.5896 39.8374 27.5895C39.8557 27.5764 39.8752 27.5614 39.8941 27.5466C39.9326 27.5165 39.982 27.4764 40.0401 27.4284C40.1568 27.3319 40.3184 27.1955 40.5172 27.0259C40.9154 26.6862 41.4691 26.208 42.1256 25.6377C43.4388 24.4968 45.1666 22.9845 46.8908 21.4684C48.615 19.9523 50.3363 18.4318 51.6364 17.2744C52.2862 16.6958 52.8318 16.2072 53.2201 15.855C53.414 15.6792 53.5702 15.5359 53.6812 15.4319C53.7364 15.3802 53.7827 15.3359 53.8178 15.3012C53.835 15.2841 53.8525 15.2664 53.8681 15.2497C53.8683 15.2495 53.8686 15.2492 53.869 15.2487C53.8759 15.2414 53.9105 15.2047 53.9404 15.1579L53.5188 14.8891C53.6029 14.757 53.624 14.63 53.624 14.2795C53.624 13.8731 53.6135 13.8274 53.4661 13.6293C53.2294 13.3144 39.7761 1.49342 39.5236 1.38167ZM39.5236 1.38167C39.2605 1.26483 38.7449 1.25975 38.5239 1.37151L39.5236 1.38167Z"/>
</svg>
