<svg width="12" height="12" viewBox="0 0 12 12" fill="none" xmlns="http://www.w3.org/2000/svg">
<path d="M1.69654 0.0358572C1.56997 0.0803928 1.42935 0.202282 0.918391 0.708591C0.353529 1.26881 0.208212 1.48915 0.0746142 1.99077C-0.00507586 2.2908 -0.0238265 2.90494 0.0324254 3.2917C0.264464 4.85047 1.41528 6.82414 3.10518 8.55168C5.0154 10.5066 7.09203 11.7536 8.80068 11.9786C9.13819 12.0232 9.73586 11.995 10.0077 11.9224C10.5117 11.7888 10.7296 11.6458 11.2898 11.0809C11.9648 10.3988 12 10.3472 12 10.0073C12 9.68619 12.007 9.69556 10.8 8.49308C9.59992 7.29763 9.66321 7.34685 9.3046 7.34685C9.01162 7.3492 8.94834 7.3867 8.48192 7.84144C8.07644 8.23758 7.97096 8.31259 7.71783 8.37822C7.32172 8.48136 7.00531 8.37353 6.26935 7.88598C5.8123 7.58126 5.48182 7.31169 5.08571 6.91321C4.68726 6.51707 4.41772 6.18656 4.11303 5.72948C3.62551 4.99346 3.51769 4.67702 3.62082 4.28088C3.68645 4.02538 3.76145 3.9199 4.15756 3.51438C4.59585 3.06902 4.64273 2.99166 4.65914 2.71976C4.66617 2.57677 4.65914 2.51348 4.61695 2.40097C4.56773 2.26736 4.50913 2.20407 3.50597 1.19849C2.29422 -0.0180559 2.31297 -0.00399113 1.98249 0.000696182C1.87702 0.000696182 1.75045 0.0171041 1.69654 0.0358572Z" />
</svg>
