<svg width="15" height="10" viewBox="0 0 15 10" fill="none" xmlns="http://www.w3.org/2000/svg">
<path d="M0.161133 1.64458C0.128906 1.6602 0.0791016 1.69667 0.0527344 1.72792C0.00585938 1.78001 0 2.01442 0 5.44463C0 8.79148 0.00292969 9.11705 0.0498047 9.23426C0.178711 9.57285 0.483398 9.84373 0.861328 9.95572C0.996094 9.9974 1.53223 10 7.5 10C13.4678 10 14.0039 9.9974 14.1387 9.95572C14.5166 9.84373 14.8213 9.57285 14.9502 9.23426C14.9971 9.11705 15 8.79148 15 5.44463C15 2.01442 14.9941 1.78001 14.9473 1.72792C14.833 1.6003 14.6543 1.57946 14.4961 1.67323C14.335 1.7722 10.1455 4.94716 8.90625 5.91084C8.31445 6.37185 8.17969 6.46822 8.05957 6.52291C7.76074 6.65575 7.41211 6.67658 7.10449 6.57761C6.85547 6.49687 6.78223 6.44999 6.25488 6.03847C5.12109 5.14771 0.685547 1.78522 0.503906 1.67323C0.395508 1.60811 0.257812 1.59769 0.161133 1.64458Z"/>
<path d="M0.827181 0.0503454C0.648471 0.105042 0.4639 0.214433 0.323275 0.344661C0.203158 0.456656 0.162142 0.610326 0.223666 0.722322C0.247103 0.763995 0.950228 1.31356 1.86429 2.00637C3.80374 3.46753 5.75199 4.95212 6.543 5.5668C6.86234 5.81684 7.17874 6.04343 7.24613 6.06948C7.42191 6.1398 7.60941 6.13199 7.78812 6.04864C7.87015 6.00697 8.2305 5.74651 8.58792 5.46783C9.40531 4.82971 11.0694 3.56389 13.1319 2.00637C14.0459 1.31356 14.7491 0.763995 14.7725 0.722322C14.834 0.610326 14.793 0.456656 14.6729 0.344661C14.5264 0.211828 14.3448 0.105042 14.1573 0.0477409C13.9961 -0.0017457 13.8526 -0.0017457 7.48636 0.000858784C1.22855 0.000858784 0.973666 0.00346375 0.827181 0.0503454Z"/>
</svg>
