<svg width="24" height="40" viewBox="0 0 24 40" fill="none" xmlns="http://www.w3.org/2000/svg">
<path d="M0.956087 0.123352C0.576259 0.317142 0.227438 0.696972 0.0956615 1.05354C-0.0593702 1.44112 -0.0206123 2.0845 0.173177 2.46433C0.242942 2.58836 4.51406 6.54166 9.66111 11.2314C14.8082 15.9211 19.0173 19.7969 19.0173 19.8356C19.0173 19.8744 14.8082 23.7502 9.66111 28.4399C4.51406 33.1296 0.242942 37.0829 0.173177 37.2069C0.00264249 37.5402 -0.0516186 38.1991 0.0646551 38.5479C0.18868 38.92 0.553005 39.3386 0.925081 39.5324C1.31266 39.7262 2.0103 39.7262 2.42889 39.5324C2.80871 39.3541 22.8233 21.1301 23.0481 20.7503C23.1721 20.5488 23.2031 20.355 23.2031 19.8201C23.2031 19.2 23.1876 19.1302 22.9706 18.8279C22.6218 18.3473 2.80096 0.309391 2.42889 0.138855C2.04131 -0.0394287 1.28165 -0.0471802 0.956087 0.123352Z" fill="#469BFF"/>
</svg>
