<svg xmlns="http://www.w3.org/2000/svg" width="32" height="32"><g stroke-miterlimit="10" stroke="#979593" stroke-width="8.69"><path d="M255.19 74.49H80.63a8.69 8.69 0 0 0-8.69 8.69V422.1c0 4.8 3.89 8.69 8.69 8.69h252.02c4.8 0 8.7-3.9 8.7-8.7V160.66c0-2.3-.92-4.52-2.55-6.15l-77.47-77.47a8.69 8.69 0 0 0-6.14-2.54z" fill="#fff" transform="matrix(.08859 0 0 .08767 1.37 -6.15)"/><path d="M255.19 74.49v78.21a8.7 8.7 0 0 0 8.69 8.7h78.21" fill="none" transform="matrix(.08859 0 0 .08767 1.37 -6.15)"/></g><path d="M26.903 24.786c-.008-.098-.099-1.29-2.24-1.24-2.136.049-2.659.18-2.659.18s-1.594-1.602-2.175-2.843c0 0 .705-2.047.672-3.329-.034-1.282-.34-2.021-1.338-2.013-.995.008-1.137.87-1.012 2.153.116 1.15.723 2.507.723 2.507s-.458 1.413-1.072 2.826c-.606 1.415-1.022 2.154-1.022 2.154s-2.059.682-2.947 1.504c-.889.822-1.255 1.454-.789 2.087.406.543 1.818.666 3.089-.978 1.262-1.644 1.835-2.67 1.835-2.67s1.935-.526 2.533-.667c.598-.14 1.329-.254 1.329-.254s1.76 1.759 3.463 1.692c1.702-.065 1.62-1.01 1.61-1.109zm-13.42 3.707c-1.053-.625 2.218-2.556 2.816-2.622 0 0-1.703 3.28-2.815 2.622zm5.033-11.259c0-1.02.332-1.29.59-1.29.257 0 .548.122.556 1.002.009.88-.556 2.605-.556 2.605-.192-.205-.59-1.306-.59-2.317zm1.37 6.961c-1.063.254-1.594.526-1.594.526l.432-.962c.431-.961.88-2.276.88-2.276.598 1.109 1.794 2.416 1.794 2.416s-.449.032-1.512.295zm2.55-.091s3.455-.616 3.455.55c0 1.16-2.143.683-3.455-.55zM-.005 3.896H21.9v10.016H-.005z" class="st3" fill="#dc1d00"/><text xml:space="preserve" style="line-height:101.99999809%;-inkscape-font-specification:'Arial, Normal';font-variant-ligatures:normal;font-variant-caps:normal;font-variant-numeric:normal;font-feature-settings:normal;text-align:start" x="-5.15" y="232.56" font-weight="400" font-size="119.42" letter-spacing="0" word-spacing="0" font-family="Arial" fill="#fff" stroke-width="14.93" transform="matrix(.0837 0 0 .08284 1.445 -6.775)"><tspan x="-5.15" y="232.56" style="-inkscape-font-specification:'Arial Bold'" font-weight="700">PDF</tspan></text></svg>