<svg width="15" height="9" viewBox="0 0 15 9" fill="none" xmlns="http://www.w3.org/2000/svg">
<path d="M0.161133 0.644576C0.128906 0.660203 0.0791016 0.696667 0.0527344 0.727921C0.00585938 0.780013 0 1.01442 0 4.44463C0 7.79148 0.00292969 8.11705 0.0498047 8.23426C0.178711 8.57285 0.483398 8.84373 0.861328 8.95572C0.996094 8.9974 1.53223 9 7.5 9C13.4678 9 14.0039 8.9974 14.1387 8.95572C14.5166 8.84373 14.8213 8.57285 14.9502 8.23426C14.9971 8.11705 15 7.79148 15 4.44463C15 1.01442 14.9941 0.780013 14.9473 0.727921C14.833 0.600299 14.6543 0.579462 14.4961 0.673226C14.335 0.7722 10.1455 3.94716 8.90625 4.91084C8.31445 5.37185 8.17969 5.46822 8.05957 5.52291C7.76074 5.65575 7.41211 5.67658 7.10449 5.57761C6.85547 5.49687 6.78223 5.44999 6.25488 5.03847C5.12109 4.14771 0.685547 0.785222 0.503906 0.673226C0.395508 0.608112 0.257812 0.597694 0.161133 0.644576Z"/>
</svg>
