<svg width="17" height="17" viewBox="0 0 17 17" fill="none" xmlns="http://www.w3.org/2000/svg">
<g clip-path="url(#clip0_1584_2463)">
<path d="M16.7923 0.20739C16.6595 0.0745984 16.4793 0 16.2915 0C16.1037 0 15.9236 0.0745984 15.7907 0.20739L8.49985 7.49827L1.20897 0.20739C1.07614 0.0745984 0.896007 0 0.708182 0C0.520357 0 0.340223 0.0745984 0.20739 0.20739C0.0745984 0.340223 0 0.520357 0 0.708182C0 0.896007 0.0745984 1.07614 0.20739 1.20897L7.49827 8.49985L0.20739 15.7907C0.0745984 15.9236 0 16.1037 0 16.2915C0 16.4793 0.0745984 16.6595 0.20739 16.7923C0.340223 16.9251 0.520357 16.9997 0.708182 16.9997C0.896007 16.9997 1.07614 16.9251 1.20897 16.7923L8.49985 9.50143L15.7907 16.7923C15.9236 16.9251 16.1037 16.9997 16.2915 16.9997C16.4793 16.9997 16.6595 16.9251 16.7923 16.7923C16.9251 16.6595 16.9997 16.4793 16.9997 16.2915C16.9997 16.1037 16.9251 15.9236 16.7923 15.7907L9.50143 8.49985L16.7923 1.20897C16.9251 1.07614 16.9997 0.896007 16.9997 0.708182C16.9997 0.520357 16.9251 0.340223 16.7923 0.20739Z" fill="white"/>
</g>
<defs>
<clipPath id="clip0_1584_2463">
<rect width="17" height="17" fill="white"/>
</clipPath>
</defs>
</svg>
