<svg width="30" height="30" viewBox="0 0 30 30" fill="none" xmlns="http://www.w3.org/2000/svg">
<g clip-path="url(#clip0_1703_1255)">
<path d="M25.731 24.4353L20.2594 18.9637C21.7505 17.1401 22.4836 14.8131 22.3071 12.4641C22.1306 10.1152 21.058 7.92386 19.3112 6.34352C17.5644 4.76318 15.2769 3.9147 12.9221 3.97357C10.5672 4.03245 8.32503 4.99419 6.65937 6.65986C4.9937 8.32552 4.03197 10.5677 3.97309 12.9226C3.91421 15.2774 4.76269 17.5648 6.34303 19.3117C7.92338 21.0585 10.1147 22.1311 12.4637 22.3076C14.8126 22.4841 17.1396 21.751 18.9632 20.2599L24.4348 25.7315C24.6077 25.8984 24.8392 25.9908 25.0796 25.9888C25.3199 25.9867 25.5499 25.8903 25.7198 25.7203C25.8898 25.5503 25.9862 25.3204 25.9883 25.0801C25.9903 24.8397 25.898 24.6082 25.731 24.4353ZM13.1662 20.5C11.7158 20.5 10.298 20.07 9.09204 19.2642C7.88608 18.4584 6.94615 17.313 6.39111 15.9731C5.83606 14.6331 5.69084 13.1586 5.9738 11.736C6.25676 10.3135 6.95519 9.00685 7.98077 7.98126C9.00636 6.95568 10.313 6.25724 11.7356 5.97429C13.1581 5.69133 14.6326 5.83655 15.9726 6.39159C17.3126 6.94664 18.4579 7.88657 19.2637 9.09253C20.0695 10.2985 20.4996 11.7163 20.4996 13.1667C20.4974 15.111 19.7241 16.975 18.3493 18.3498C16.9745 19.7245 15.1105 20.4979 13.1662 20.5Z" fill="white"/>
</g>
<defs>
<clipPath id="clip0_1703_1255">
<rect width="22" height="22" fill="white" transform="translate(4 4)"/>
</clipPath>
</defs>
</svg>
