<svg width="24" height="40" viewBox="0 0 24 40" fill="none" xmlns="http://www.w3.org/2000/svg">
<path d="M22.247 39.5544C22.6269 39.3606 22.9757 38.9808 23.1075 38.6242C23.2625 38.2366 23.2237 37.5932 23.0299 37.2134C22.9602 37.0894 18.6891 33.1361 13.542 28.4464C8.39496 23.7567 4.18585 19.8809 4.18585 19.8421C4.18585 19.8034 8.39496 15.9276 13.542 11.2379C18.6891 6.54815 22.9602 2.59484 23.0299 2.47082C23.2005 2.1375 23.2547 1.47861 23.1385 1.12979C23.0144 0.757717 22.6501 0.339132 22.278 0.145342C21.8905 -0.0484474 21.1928 -0.0484474 20.7742 0.145342C20.3944 0.323629 0.379827 18.5476 0.155031 18.9274C0.0310059 19.129 0 19.3228 0 19.8576C0 20.4777 0.0155029 20.5475 0.232548 20.8498C0.581369 21.3304 20.4022 39.3683 20.7742 39.5389C21.1618 39.7172 21.9215 39.7249 22.247 39.5544Z" fill="#469BFF"/>
</svg>
