<svg width="80" height="80" viewBox="0 0 80 80" fill="none" xmlns="http://www.w3.org/2000/svg">
<path d="M46.6667 33.3333H62.5467C63.6829 33.3334 64.8003 33.6238 65.7927 34.1771C66.7851 34.7303 67.6196 35.5281 68.2171 36.4945C68.8145 37.461 69.1551 38.5641 69.2063 39.6992C69.2576 40.8343 69.0179 41.9636 68.51 42.98L56.8433 66.3133C56.2896 67.4215 55.4379 68.3535 54.384 69.0047C53.3301 69.6559 52.1155 70.0006 50.8767 70H37.4867C36.9433 70 36.4 69.9333 35.87 69.8L23.3333 66.6667M46.6667 33.3333V16.6667C46.6667 14.8986 45.9643 13.2029 44.714 11.9526C43.4638 10.7024 41.7681 10 40 10H39.6833C38.0167 10 36.6667 11.35 36.6667 13.0167C36.6667 15.3967 35.9633 17.7233 34.64 19.7033L23.3333 36.6667V66.6667M46.6667 33.3333H40M23.3333 66.6667H16.6667C14.8986 66.6667 13.2029 65.9643 11.9526 64.714C10.7024 63.4638 10 61.7681 10 60V40C10 38.2319 10.7024 36.5362 11.9526 35.286C13.2029 34.0357 14.8986 33.3333 16.6667 33.3333H25" stroke-width="1.5" stroke-linecap="round" stroke-linejoin="round"/>
</svg>
