<svg width="16" height="15" viewBox="0 0 16 15" fill="none" xmlns="http://www.w3.org/2000/svg">
<path d="M5.51296 0.0200345C5.32232 0.0775163 5.13849 0.189286 4.99211 0.342571C4.70615 0.63956 4.72998 -0.00870633 4.72998 7.39047V13.9785H5.46189H6.19381V12.5894C6.19381 11.0629 6.19381 11.0597 6.39806 10.9607C6.54785 10.8873 9.44828 10.8873 9.59806 10.9607C9.80232 11.0597 9.80232 11.0629 9.80232 12.5894V13.9785H10.5342H11.2661V7.39047C11.2661 -0.00870633 11.29 0.63956 11.004 0.342571C10.9189 0.253155 10.7691 0.141385 10.6738 0.0934834L10.5002 0.00726081L8.04913 0.000873954C6.70104 -0.00231948 5.56062 0.00726081 5.51296 0.0200345ZM7.6236 1.36447V1.68381H6.9087H6.19381V1.36447V1.04513H6.9087H7.6236V1.36447ZM9.80232 1.36447V1.68381H9.08743H8.37253V1.36447V1.04513H9.08743H9.80232V1.36447ZM7.6236 3.40826V3.72761H6.9087H6.19381V3.40826V3.08892H6.9087H7.6236V3.40826ZM9.80232 3.40826V3.72761H9.08743H8.37253V3.40826V3.08892H9.08743H9.80232V3.40826ZM7.6236 5.45206V5.7714H6.9087H6.19381V5.45206V5.13272H6.9087H7.6236V5.45206ZM9.80232 5.45206V5.7714H9.08743H8.37253V5.45206V5.13272H9.08743H9.80232V5.45206ZM7.6236 7.49585V7.8152H6.9087H6.19381V7.49585V7.17651H6.9087H7.6236V7.49585ZM9.80232 7.49585V7.8152H9.08743H8.37253V7.49585V7.17651H9.08743H9.80232V7.49585ZM7.6236 9.53965V9.85899H6.9087H6.19381V9.53965V9.22031H6.9087H7.6236V9.53965ZM9.80232 9.53965V9.85899H9.08743H8.37253V9.53965V9.22031H9.08743H9.80232V9.53965Z" fill="#285A9A"/>
<path d="M1.4628 2.08299C1.20748 2.15963 0.986208 2.34485 0.850037 2.59074L0.730888 2.81109L0.720676 8.39321L0.713867 13.9785H2.55217H4.39046V8.0068V2.03509L3.00493 2.03828C1.90876 2.03828 1.58195 2.04786 1.4628 2.08299ZM3.64153 4.43016V4.7495H2.7394H1.83727V4.43016V4.11082H2.7394H3.64153V4.43016ZM3.64153 6.47395V6.7933H2.7394H1.83727V6.47395V6.15461H2.7394H3.64153V6.47395ZM3.64153 8.51775V8.83709H2.7394H1.83727V8.51775V8.19841H2.7394H3.64153V8.51775ZM3.64153 10.5615V10.8809H2.7394H1.83727V10.5615V10.2422H2.7394H3.64153V10.5615ZM3.64153 12.6053V12.9247H2.7394H1.83727V12.6053V12.286H2.7394H3.64153V12.6053Z" fill="#285A9A"/>
<path d="M11.6123 8.0068V13.9785H13.4506H15.2889L15.2821 8.39959L15.2719 2.81748L15.1834 2.63865C15.071 2.4183 14.8804 2.23308 14.6557 2.1277L14.4889 2.05106L13.0523 2.04148L11.6123 2.0319V8.0068ZM14.1655 4.43016V4.7495H13.2634H12.3612V4.43016V4.11082H13.2634H14.1655V4.43016ZM14.1655 6.47396V6.7933H13.2634H12.3612V6.47396V6.15461H13.2634H14.1655V6.47396ZM14.1655 8.51775V8.83709H13.2634H12.3612V8.51775V8.19841H13.2634H14.1655V8.51775ZM14.1655 10.5615V10.8809H13.2634H12.3612V10.5615V10.2422H13.2634H14.1655V10.5615ZM14.1655 12.6053V12.9247H13.2634H12.3612V12.6053V12.286H13.2634H14.1655V12.6053Z" fill="#285A9A"/>
<path d="M6.9126 12.7811V13.9785H8.00196H9.09132V12.7811V11.5836H8.00196H6.9126V12.7811Z" fill="#285A9A"/>
<path d="M0 14.6488V15H8H16V14.6488V14.2975H8H0V14.6488Z" fill="#285A9A"/>
</svg>
