<svg width="16" height="15" viewBox="0 0 16 15" fill="none" xmlns="http://www.w3.org/2000/svg">
<path d="M13.0911 0.0407728C12.7522 0.128636 12.4111 0.377583 12.2481 0.65791C12.1837 0.770877 12.1773 0.777153 12.113 0.762509C11.8513 0.708118 11.6132 0.714394 11.4223 0.779245C11.3493 0.802257 11.3257 0.802257 11.2635 0.777153C10.901 0.632806 10.4313 0.791797 10.2532 1.11815C10.2253 1.17045 10.191 1.21229 10.1782 1.21229C10.1674 1.21229 10.1288 1.183 10.0945 1.14953C9.86498 0.915225 9.41453 0.850373 9.08634 1.001C8.89973 1.08468 8.69595 1.28341 8.62517 1.44659C8.57798 1.56165 8.57583 1.56374 8.51363 1.54282C8.43855 1.51772 8.28411 1.53445 8.20046 1.57629C8.1168 1.62023 8.01384 1.72482 7.97094 1.8106C7.92375 1.90892 7.92375 2.10557 7.97094 2.20389C8.00526 2.27293 8.11895 2.38799 8.2026 2.4361C8.23478 2.45493 8.23692 2.46957 8.21547 2.53861C8.2026 2.58463 8.19617 2.69342 8.20046 2.77919C8.20904 2.96747 8.26266 3.09089 8.39136 3.2206C8.66163 3.49256 9.11423 3.50302 9.39523 3.2457C9.50462 3.14529 9.61187 2.9591 9.61187 2.86914C9.61187 2.78965 9.64834 2.74572 9.72985 2.73107C9.80063 2.71643 9.81565 2.7248 9.92504 2.82103C10.2361 3.09926 10.6801 3.15156 11.0533 2.95491L11.1563 2.90052L11.2893 2.9591C11.5467 3.07207 11.8062 3.10345 12.0293 3.04696L12.1408 3.01767L12.2202 3.12855C12.557 3.60971 13.1769 3.84192 13.7389 3.70176C14.0413 3.62644 14.3652 3.42143 14.539 3.19549C14.5776 3.14529 14.5883 3.1411 14.6655 3.15784C14.7771 3.18503 15.0473 3.18294 15.1674 3.15575C15.412 3.10135 15.678 2.91935 15.8195 2.70806C15.9311 2.54698 15.9826 2.3838 15.9976 2.16414C16.0169 1.85244 15.9332 1.61604 15.7209 1.39011C15.5149 1.17045 15.264 1.0512 14.9615 1.03028L14.7856 1.01773L14.7599 0.93196C14.6698 0.63699 14.3888 0.306456 14.1014 0.160016C13.7904 0.001025 13.4171 -0.0429068 13.0911 0.0407728Z" fill="#285A9A"/>
<path d="M7.87219 6.19824V8.8009L7.6534 8.92643L7.43246 9.05405L7.41959 8.78835C7.41101 8.64399 7.40457 8.32598 7.40243 8.08538C7.40028 7.84269 7.39385 7.51421 7.38527 7.35103L7.3724 7.05812L7.11285 7.19202C6.96914 7.26525 6.75249 7.37822 6.62808 7.44099C6.50367 7.50585 6.33636 7.59372 6.2527 7.63556C6.17119 7.6795 5.9331 7.80084 5.72718 7.90754C5.52126 8.01424 5.27458 8.14187 5.1802 8.18999C4.32648 8.63353 3.57573 9.01639 3.57144 9.01221C3.56715 9.00802 3.5457 8.64817 3.51996 8.21091C3.49422 7.77364 3.46848 7.33429 3.46205 7.23386L3.44918 7.05394L1.72459 8.17325L0 9.29465L0.00429002 12.1421L0.010725 14.9895L5.45476 14.9958L10.8966 15V11.0228V7.04557L10.828 7.08741C10.5792 7.23386 10.0966 7.51003 10.0901 7.51003C10.0858 7.51003 10.0815 6.62923 10.0815 5.55385V3.59767H8.97687H7.87219V6.19824ZM6.69243 11.1923V11.7362H5.53413H4.37582V11.1923V10.6483H5.53413H6.69243V11.1923ZM3.56072 11.2236V11.7781H2.40241H1.24411V11.2236V10.6692H2.40241H3.56072V11.2236ZM9.9743 11.2236V11.7781H8.81599H7.65769V11.2236V10.6692H8.81599H9.9743V11.2236ZM6.69243 13.2321V13.7865H5.53413H4.37582V13.2321V12.6777H5.53413H6.69243V13.2321ZM3.56072 13.274V13.8284H2.40241H1.24411V13.274V12.7195H2.40241H3.56072V13.274ZM9.9743 13.274V13.8284H8.81599H7.65769V13.274V12.7195H8.81599H9.9743V13.274Z" fill="#285A9A"/>
</svg>
