<svg width="30" height="30" viewBox="0 0 30 30" fill="none" xmlns="http://www.w3.org/2000/svg">
<path d="M15.2258 4.08675C15.0193 4.21135 14.9419 4.39611 14.9634 4.69688C14.9806 4.92031 15.0021 4.96758 15.1398 5.10507L15.2946 5.26405L15.9097 5.29842C17.5914 5.38865 18.8258 5.68943 19.901 6.26519C21.9268 7.34796 23.3892 9.06235 24.0601 11.1334C24.344 12.0142 24.473 12.7575 24.5719 14.0337C24.6407 14.9746 24.6709 15.0735 24.9375 15.2496C25.0623 15.3356 25.1225 15.3485 25.359 15.3356C25.6128 15.3184 25.6429 15.3055 25.7934 15.1422C26.0042 14.9188 26.0343 14.7125 25.9698 13.836C25.8063 11.5888 25.2816 9.9174 24.2537 8.35769C23.7289 7.5628 22.972 6.75931 22.116 6.09332C20.3397 4.70977 18.258 4.00081 15.9957 4.00081C15.4451 4.00081 15.3462 4.0137 15.2258 4.08675Z" fill="#fff"/>
<path d="M7.34224 4.40281C7.02397 4.52313 6.00892 5.18918 5.47129 5.63607C3.95733 6.89512 3.75088 7.44515 4.22829 9.01359C4.60248 10.2512 5.5143 12.2149 6.3229 13.5169C7.22611 14.978 7.71643 15.6698 8.67126 16.8472C10.7229 19.3739 12.8992 21.342 15.5142 23.035C17.0755 24.0491 18.469 24.7839 20.34 25.5832C21.2389 25.9656 21.3636 26 21.927 26C22.512 26 22.912 25.8797 23.4926 25.5316C24.2711 25.0632 25.3335 23.903 25.7679 23.0479C25.8539 22.8717 25.8883 22.7213 25.9227 22.3475C26.0001 21.4322 25.9012 21.2302 24.998 20.4782C23.927 19.5887 22.9034 18.8668 21.7507 18.2008C21.0152 17.7754 20.8733 17.7281 20.2668 17.7281C19.7937 17.7281 19.7292 17.7367 19.5142 17.8441C19.3851 17.9086 19.2303 18.0031 19.1701 18.059C19.0324 18.1879 18.5851 18.6992 18.2109 19.1504C17.7851 19.6704 17.4153 19.8036 16.7744 19.6618C16.211 19.5372 15.1228 19.0516 14.5938 18.682C13.1443 17.6765 11.996 16.5421 11.2863 15.4077C10.8906 14.776 10.5379 13.8865 10.4433 13.2806C10.4089 13.0657 10.4132 12.9325 10.4605 12.7134C10.5336 12.3524 10.6153 12.1977 10.7917 12.0731C11.0024 11.9227 11.7594 11.2868 12.0562 11.0031C12.7701 10.3285 12.7228 9.66245 11.8755 8.29168C11.011 6.89942 9.2648 4.83252 8.71857 4.5575C8.33148 4.35984 7.66052 4.28679 7.34224 4.40281Z" fill="#fff"/>
<path d="M15.4931 6.82928C15.4286 6.86795 15.334 6.98396 15.2867 7.08708C15.1576 7.34918 15.2006 7.59839 15.4028 7.80033C15.5748 7.9722 15.7082 8.01947 16.2587 8.08392C17.3425 8.21282 18.5038 8.62101 19.192 9.11084C19.8716 9.59207 20.3404 10.1163 20.7791 10.8854C21.2565 11.7232 21.4113 12.2689 21.5059 13.4462C21.5705 14.297 21.6178 14.4173 21.9317 14.5677C22.2371 14.7181 22.5511 14.6665 22.7747 14.4259C22.878 14.3142 22.8823 14.2798 22.8952 13.7083C22.9683 10.5717 21.0113 7.9765 17.8888 7.06989C16.9426 6.7949 15.7426 6.67459 15.4931 6.82928Z" fill="#fff"/>
<path d="M16.0804 9.71444C15.7707 9.9078 15.6933 10.3847 15.9213 10.6855C16.0288 10.823 16.3299 10.9605 16.532 10.9605C16.7514 10.9605 17.3105 11.1023 17.5642 11.2183C18.2352 11.5277 18.5621 12.0776 18.7126 13.1647C18.7857 13.6803 18.8503 13.8049 19.0868 13.9295C19.4352 14.1057 19.8352 13.9897 19.9943 13.6674C20.1965 13.2721 19.99 11.9831 19.6287 11.3558C19.061 10.3632 17.9556 9.73163 16.6395 9.64999C16.2653 9.62421 16.2094 9.63281 16.0804 9.71444Z" fill="#fff"/>
</svg>
