<svg width="31" height="30" viewBox="0 0 31 30" fill="none" xmlns="http://www.w3.org/2000/svg">
<path d="M1.64838 22.3409C2.26088 24.5134 4.13463 24.9109 4.25963 24.9872C7.34338 25.8272 24.6284 25.8297 27.7584 24.9872C29.9021 24.3672 30.2959 22.4659 30.3696 22.3409C31.1859 17.9984 31.2396 12.3372 30.3321 7.40966L30.3696 7.65466C29.7571 5.48216 27.8834 5.08466 27.7584 5.00841C24.7159 4.18216 7.38588 4.15091 4.25963 5.00841C2.11588 5.62966 1.72213 7.52966 1.64838 7.65466C0.774631 12.2184 0.730881 17.4547 1.64838 22.3409ZM13.0059 19.5622V10.4459L20.8384 15.0109L13.0059 19.5622Z" fill="#fff"/>
<path d="M22 15L13 20.1962V9.80385L22 15Z" fill="#ff0000"/>
</svg>
