<svg width="60" height="68" viewBox="0 0 60 68" fill="none" xmlns="http://www.w3.org/2000/svg">
<g clip-path="url(#clip0_602_13)">
<g filter="url(#filter0_f_602_13)">
<path d="M30.51 56.523C30.5041 56.6516 30.4488 56.7729 30.3557 56.8618C30.2625 56.9506 30.1387 57.0001 30.01 57C29.72 57 29.5 56.79 29.49 56.523C29.345 53.355 27.734 51.306 24.658 50.376C14.53 47.968 7 38.863 7 28C7 15.297 17.297 5 30 5C42.703 5 53 15.297 53 28C53 38.863 45.47 47.968 35.342 50.376C32.266 51.306 30.655 53.356 30.512 56.523H30.51Z" fill="#FF4433"/>
</g>
<path d="M30.51 56.523C30.5041 56.6516 30.4488 56.7729 30.3557 56.8618C30.2625 56.9506 30.1387 57.0001 30.01 57C29.72 57 29.5 56.79 29.49 56.523C29.345 53.355 27.734 51.306 24.658 50.376C14.53 47.968 7 38.863 7 28C7 15.297 17.297 5 30 5C42.703 5 53 15.297 53 28C53 38.863 45.47 47.968 35.342 50.376C32.266 51.306 30.655 53.356 30.512 56.523H30.51Z" fill="#FF4433"/>
<path d="M30 68C27.79 68 26 66.21 26 64C26 61.79 27.79 60 30 60C32.21 60 34 61.79 34 64C34 66.21 32.21 68 30 68Z" fill="white"/>
<path fill-rule="evenodd" clip-rule="evenodd" d="M29.9997 66C30.266 66.006 30.5309 65.9588 30.7787 65.861C31.0266 65.7633 31.2524 65.617 31.4429 65.4308C31.6334 65.2446 31.7848 65.0222 31.8882 64.7766C31.9916 64.5311 32.0449 64.2674 32.0449 64.001C32.045 63.7346 31.9918 63.4708 31.8886 63.2253C31.7853 62.9797 31.634 62.7572 31.4436 62.5709C31.2532 62.3846 31.0274 62.2382 30.7797 62.1403C30.5319 62.0425 30.267 61.9951 30.0007 62.001C29.4781 62.0125 28.9809 62.2282 28.6153 62.6018C28.2498 62.9754 28.0451 63.4773 28.0449 64C28.0448 64.5227 28.2493 65.0246 28.6146 65.3984C28.98 65.7722 29.4772 65.9882 29.9997 66Z" fill="#FF4433"/>
<path fill-rule="evenodd" clip-rule="evenodd" d="M22 16C20.8954 16 20 16.8954 20 18V40H24.7266V34.4161H27.3685V40H32.054V18C32.054 16.8954 31.1586 16 30.054 16H22ZM24.7883 19.3658H22.4766V22.1381H24.7883V19.3658ZM22.4766 24.8318H24.7883V32.1585H22.4766V24.8318ZM29.5774 24.8318H27.2656V32.1585H29.5774V24.8318ZM27.2656 19.3658H29.5774V22.1381H27.2656V19.3658Z" fill="white"/>
<rect x="29.6328" y="33.584" width="3.24833" height="6.41584" fill="white"/>
<rect x="33.3828" y="20.9504" width="3.7571" height="1.58416" fill="white"/>
<path fill-rule="evenodd" clip-rule="evenodd" d="M33.8828 22.772C33.3305 22.772 32.8828 23.2197 32.8828 23.772V39.9997H40.0057V23.772C40.0057 23.2197 39.5579 22.772 39.0057 22.772H33.8828ZM38.2916 25.2672H33.5547V26.8514H38.2916V25.2672ZM33.5547 27.9994H38.2916V29.5835H33.5547V27.9994ZM38.2916 30.7332H33.5547V32.3174H38.2916V30.7332Z" fill="white"/>
</g>
<defs>
<filter id="filter0_f_602_13" x="1" y="-1" width="58" height="64" filterUnits="userSpaceOnUse" color-interpolation-filters="sRGB">
<feFlood flood-opacity="0" result="BackgroundImageFix"/>
<feBlend mode="normal" in="SourceGraphic" in2="BackgroundImageFix" result="shape"/>
<feGaussianBlur stdDeviation="3" result="effect1_foregroundBlur_602_13"/>
</filter>
<clipPath id="clip0_602_13">
<rect width="60" height="68" fill="white"/>
</clipPath>
</defs>
</svg>
