<svg width="22" height="22" viewBox="0 0 22 22" fill="none" xmlns="http://www.w3.org/2000/svg">
<g clip-path="url(#clip0_1529_890)">
<rect width="22" height="22" fill="#2f5894"/>
<path d="M10.218 0.360546C5.95547 3.26523 0.176172 7.28711 0.0945313 7.39883L0 7.53633V14.4414V21.3422L0.0988281 21.5312C0.154688 21.6344 0.283594 21.7762 0.382422 21.8492L0.567187 21.9781L1.65859 21.991L2.75 22.0039L2.75859 16.4051C2.77148 11.0555 2.77578 10.7977 2.85313 10.6473C2.95625 10.4324 3.22266 10.2004 3.42461 10.1445C3.65234 10.0801 18.3477 10.0801 18.5754 10.1445C18.7773 10.2004 19.0438 10.4324 19.1469 10.6473C19.2242 10.7977 19.2285 11.0555 19.2414 16.4008L19.25 21.9996H20.2984C21.3039 21.9996 21.3469 21.9953 21.5316 21.9008C21.6477 21.8406 21.7766 21.7203 21.8582 21.5957L22 21.3895V14.4715C22 7.66953 22 7.54922 21.9141 7.41602C21.8582 7.31719 20.3199 6.23867 16.818 3.81953C14.0594 1.92031 11.6789 0.283203 11.5242 0.180079C11.275 0.0210934 11.2148 -0.000391006 10.9957 -0.000391006C10.7508 -0.000391006 10.7293 0.00820351 10.218 0.360546Z" fill="#FEFEFE"/>
<path d="M8.45625 11.9711C8.3918 12.0055 8.31875 12.0699 8.29297 12.1172C8.26719 12.1687 8.25 12.9207 8.25 14.2227V16.2508L8.37461 16.3754L8.49922 16.5H11H13.5008L13.6254 16.3754L13.75 16.2508V14.2227C13.75 12.9164 13.7328 12.1687 13.707 12.1129C13.6082 11.9281 13.4621 11.9023 12.5469 11.9023H11.6875V12.2117C11.6832 12.65 11.623 12.8863 11.4641 13.0496C11.1977 13.3289 10.8582 13.3375 10.5703 13.0797C10.377 12.9035 10.3125 12.6801 10.3125 12.2031V11.9023H9.44453C8.75703 11.9066 8.54648 11.9195 8.45625 11.9711Z" fill="#FEFEFE"/>
<path d="M5.17734 17.5484L5.03125 17.6945V19.6754C5.03125 21.7937 5.03555 21.8453 5.2418 21.957C5.29766 21.9828 6.19141 22 7.81133 22H10.2992L10.4281 21.8668L10.5527 21.7379L10.5656 19.7742C10.5785 17.6859 10.5742 17.6473 10.368 17.4883C10.2691 17.4109 10.1918 17.4023 9.3668 17.4023H8.46875V17.802C8.46875 18.3133 8.36992 18.5324 8.08203 18.6828C7.84141 18.8074 7.62227 18.7902 7.41602 18.627C7.17969 18.4508 7.13672 18.3219 7.13672 17.832V17.4023H6.23008H5.32344L5.17734 17.5484Z" fill="#FEFEFE"/>
<path d="M11.6394 17.4883C11.4331 17.6473 11.4288 17.6859 11.4417 19.7742L11.4546 21.7379L11.5792 21.8668L11.7081 22H14.196C15.8159 22 16.7097 21.9828 16.7655 21.957C16.9718 21.8453 16.9761 21.7937 16.9761 19.6754V17.6945L16.83 17.5484L16.6839 17.4023H15.7816H14.8792L14.862 17.8707C14.8491 18.3734 14.8105 18.4766 14.5655 18.6613C14.2734 18.8762 13.8136 18.743 13.6374 18.3906C13.5558 18.2359 13.5386 18.1285 13.5386 17.802V17.4023H12.6405C11.8155 17.4023 11.7382 17.4109 11.6394 17.4883Z" fill="#FEFEFE"/>
</g>
<defs>
<clipPath id="clip0_1529_890">
<rect width="22" height="22" fill="white"/>
</clipPath>
</defs>
</svg>
