<svg width="62" height="65" viewBox="0 0 62 65" fill="none" xmlns="http://www.w3.org/2000/svg">
<path d="M0.464844 57.6779V46.8477H4.10545C4.76405 46.8477 5.27629 46.9995 5.64218 47.3058C6.00807 47.6121 6.19102 48.0624 6.19102 48.6619V49.9263C6.19102 50.2562 6.14397 50.552 6.0525 50.8164C5.96103 51.0782 5.82251 51.2955 5.64218 51.4656C5.48276 51.6253 5.2972 51.7353 5.08289 51.7955C4.86859 51.8557 4.67257 51.8924 4.48963 51.9055C4.70916 51.9055 4.92347 51.929 5.12994 51.9788C5.3364 52.0285 5.52719 52.1254 5.69707 52.272C5.89308 52.4421 6.04727 52.662 6.16488 52.9317C6.27988 53.2013 6.33999 53.5312 6.33999 53.9212V55.4239C6.33999 56.0339 6.23806 56.5025 6.03682 56.8245C5.83558 57.1491 5.55594 57.3716 5.19527 57.4921C4.83461 57.6151 4.406 57.6753 3.90421 57.6753H0.464844V57.6779ZM2.22111 51.5389H3.37367C3.73956 51.5389 4.0192 51.429 4.21521 51.2091C4.41122 50.9892 4.50792 50.6279 4.50792 50.1279V48.9734C4.50792 48.5702 4.41907 48.277 4.24135 48.0938C4.06363 47.9105 3.84148 47.8189 3.57229 47.8189H2.2185V51.5389H2.22111ZM2.22111 56.7433H3.52002C3.73956 56.7433 3.92511 56.7067 4.07931 56.6334C4.23089 56.5601 4.35111 56.4187 4.43475 56.2119C4.52099 56.0051 4.56281 55.704 4.56281 55.314V53.9396C4.56281 53.4265 4.45565 53.0861 4.24135 52.9212C4.02704 52.7563 3.75001 52.6751 3.40764 52.6751H2.2185V56.7433H2.22111Z" fill="white"/>
<path d="M7.34375 57.6779V46.8477H8.89878V54.1595L11.5881 46.8477H13.1248V57.6779H11.5698V50.7693L8.89878 57.6779H7.34375Z" fill="white"/>
<path d="M14.168 53.2617V52.0889H17.9366V53.2617H14.168Z" fill="white"/>
<path d="M18.9805 57.6779V46.8477H21.1392L22.9504 54.5443L24.7798 46.8477H26.9203V57.6779H25.3652V49.3216L23.5541 57.6779H22.3467L20.5355 49.3216V57.6779H18.9805Z" fill="white"/>
<path d="M28.1445 57.6779V46.8477H33.0109V48.0938H29.974V51.374H32.4803V52.7484H29.974V56.4685H33.0109V57.6779H28.1445Z" fill="white"/>
<path d="M33.7266 57.6779V46.8477H35.4645V51.3923H37.7879V46.8477H39.5259V57.6779H37.7879V52.7118H35.4645V57.6779H33.7266Z" fill="white"/>
<path d="M43.5482 57.8977C42.9863 57.8977 42.4845 57.8297 42.0402 57.6961C41.5959 57.5626 41.2483 57.2851 40.9974 56.861C40.7465 56.4396 40.6211 55.8086 40.6211 54.9657V49.1199C40.6211 48.4602 40.7465 47.9575 40.9974 47.6094C41.2483 47.2612 41.5959 47.0203 42.0402 46.8842C42.4845 46.7507 42.9942 46.6826 43.5665 46.6826C44.1389 46.6826 44.6589 46.7533 45.0849 46.8947C45.5109 47.036 45.8481 47.2795 46.0911 47.6277C46.3342 47.9759 46.457 48.4733 46.457 49.1225V51.2482H44.7008V49.0675C44.7008 48.6879 44.6511 48.4104 44.5544 48.2324C44.4577 48.0544 44.3218 47.9366 44.1519 47.8738C43.9821 47.8135 43.786 47.7821 43.5665 47.7821C43.347 47.7821 43.151 47.8135 42.9811 47.8738C42.8112 47.934 42.6753 48.0544 42.5786 48.2324C42.4819 48.4104 42.4322 48.6879 42.4322 49.0675V55.573C42.4322 55.9395 42.4819 56.2144 42.5786 56.3977C42.6753 56.5809 42.8112 56.704 42.9811 56.7642C43.151 56.8244 43.347 56.8558 43.5665 56.8558C43.7991 56.8558 43.9977 56.8244 44.1598 56.7642C44.3244 56.704 44.4551 56.5809 44.5544 56.3977C44.6511 56.2144 44.7008 55.9395 44.7008 55.573V53.6305H46.457V54.95C46.457 55.8165 46.3342 56.4579 46.0911 56.8741C45.8481 57.2904 45.5109 57.5653 45.0849 57.6988C44.6589 57.8323 44.1467 57.9003 43.5482 57.9003V57.8977Z" fill="white"/>
<path d="M46.4967 59.6309H0V65.0002H46.4967V59.6309Z" fill="white"/>
<path d="M13.8131 63.5914C13.7295 63.6568 13.6223 63.7013 13.4943 63.7249C13.3662 63.7484 13.2303 63.7615 13.084 63.7615C12.9088 63.7615 12.7442 63.7301 12.59 63.6725C12.4358 63.6123 12.3025 63.5207 12.1875 63.3976C12.0725 63.2746 11.9837 63.1175 11.9157 62.9264C11.8478 62.7353 11.8164 62.5075 11.8164 62.2458C11.8164 61.984 11.853 61.7405 11.9262 61.5494C11.9994 61.3583 12.0987 61.2012 12.2189 61.0808C12.3391 60.9604 12.475 60.8713 12.6266 60.8138C12.7782 60.7588 12.9298 60.73 13.0866 60.73C13.2538 60.73 13.3897 60.7378 13.4969 60.7562C13.604 60.7745 13.6929 60.798 13.7687 60.8295L13.6851 61.1384C13.5518 61.0703 13.361 61.0389 13.1127 61.0389C12.9977 61.0389 12.8853 61.0598 12.7729 61.1017C12.6606 61.1436 12.5613 61.2117 12.475 61.3059C12.3861 61.4002 12.3156 61.5258 12.2633 61.6777C12.211 61.8295 12.1849 62.0206 12.1849 62.2431C12.1849 62.4447 12.211 62.6201 12.2607 62.7719C12.3104 62.9238 12.3809 63.0494 12.4672 63.1489C12.556 63.2484 12.658 63.3243 12.7756 63.3741C12.8932 63.4238 13.0238 63.45 13.1624 63.45C13.2878 63.45 13.3976 63.4369 13.4917 63.4133C13.5857 63.3872 13.6641 63.3557 13.7269 63.3165L13.8105 63.5887L13.8131 63.5914Z" fill="#1D1D1B"/>
<path d="M19.554 63.4029H20.1394V61.3766L20.1812 61.1305L20.0139 61.3269L19.554 61.6567L19.3945 61.4421L20.3145 60.73H20.4661V63.4029H21.0384V63.7118H19.554V63.4029Z" fill="#1D1D1B"/>
<path d="M23.6927 61.6696C23.6927 61.5361 23.711 61.4105 23.7502 61.2979C23.7894 61.1827 23.8469 61.0832 23.9227 60.9994C23.9985 60.9157 24.0926 60.8502 24.205 60.8031C24.3174 60.756 24.4506 60.7324 24.5996 60.7324C24.8845 60.7324 25.1066 60.824 25.2634 61.0099C25.4203 61.1958 25.5013 61.455 25.5013 61.7901C25.5013 62.1068 25.4647 62.3817 25.3941 62.6173C25.3236 62.8529 25.2242 63.0519 25.0988 63.2142C24.9733 63.3765 24.8244 63.5022 24.6545 63.5938C24.482 63.6854 24.2964 63.743 24.0952 63.7666L24.0194 63.4995C24.1815 63.4734 24.3278 63.4262 24.4559 63.3582C24.5839 63.2901 24.6963 63.2011 24.7904 63.0938C24.8845 62.9864 24.9603 62.866 25.0178 62.7325C25.0753 62.5964 25.1171 62.4498 25.138 62.2901C25.0622 62.3791 24.9786 62.4419 24.8897 62.4759C24.7982 62.51 24.6806 62.5283 24.5317 62.5283C24.4167 62.5283 24.3095 62.51 24.2076 62.4707C24.1057 62.4341 24.0168 62.3791 23.9384 62.3058C23.86 62.2325 23.7999 62.1435 23.7555 62.0388C23.711 61.934 23.6875 61.811 23.6875 61.6749L23.6927 61.6696ZM24.0403 61.6356C24.0403 61.8346 24.0926 61.9838 24.1971 62.0806C24.3017 62.1801 24.4402 62.2299 24.6101 62.2299C24.746 62.2299 24.8636 62.2089 24.9603 62.1618C25.057 62.1173 25.1275 62.0597 25.1694 61.9864C25.1746 61.9497 25.1772 61.9183 25.1772 61.8895V61.8005C25.1772 61.701 25.1641 61.6042 25.1406 61.5099C25.1171 61.4157 25.0805 61.3319 25.0335 61.2586C24.9864 61.1853 24.9237 61.1277 24.8479 61.0858C24.7721 61.044 24.6806 61.023 24.5787 61.023C24.4088 61.023 24.2755 61.078 24.1815 61.1853C24.0874 61.2927 24.0403 61.4419 24.0403 61.6356Z" fill="#1D1D1B"/>
<path d="M28.0599 61.6696C28.0599 61.5361 28.0782 61.4105 28.1174 61.2979C28.1566 61.1827 28.2141 61.0832 28.2899 60.9994C28.3657 60.9157 28.4598 60.8502 28.5722 60.8031C28.6845 60.756 28.8178 60.7324 28.9668 60.7324C29.2517 60.7324 29.4738 60.824 29.6306 61.0099C29.7874 61.1958 29.8685 61.455 29.8685 61.7901C29.8685 62.1068 29.8319 62.3817 29.7613 62.6173C29.6907 62.8529 29.5914 63.0519 29.466 63.2142C29.3405 63.3765 29.1916 63.5022 29.0217 63.5938C28.8492 63.6854 28.6636 63.743 28.4624 63.7666L28.3866 63.4995C28.5486 63.4734 28.695 63.4262 28.8231 63.3582C28.9511 63.2901 29.0635 63.2011 29.1576 63.0938C29.2517 62.9864 29.3275 62.866 29.385 62.7325C29.4425 62.5964 29.4843 62.4498 29.5052 62.2901C29.4294 62.3791 29.3458 62.4419 29.2569 62.4759C29.1654 62.51 29.0478 62.5283 28.8988 62.5283C28.7839 62.5283 28.6767 62.51 28.5748 62.4707C28.4728 62.4341 28.384 62.3791 28.3056 62.3058C28.2272 62.2325 28.1671 62.1435 28.1226 62.0388C28.0782 61.934 28.0547 61.811 28.0547 61.6749L28.0599 61.6696ZM28.4075 61.6356C28.4075 61.8346 28.4598 61.9838 28.5643 62.0806C28.6689 62.1801 28.8074 62.2299 28.9773 62.2299C29.1132 62.2299 29.2308 62.2089 29.3275 62.1618C29.4242 62.1173 29.4947 62.0597 29.5365 61.9864C29.5418 61.9497 29.5444 61.9183 29.5444 61.8895V61.8005C29.5444 61.701 29.5313 61.6042 29.5078 61.5099C29.4843 61.4157 29.4477 61.3319 29.4006 61.2586C29.3536 61.1853 29.2909 61.1277 29.2151 61.0858C29.1393 61.044 29.0478 61.023 28.9459 61.023C28.776 61.023 28.6427 61.078 28.5486 61.1853C28.4546 61.2927 28.4075 61.4419 28.4075 61.6356Z" fill="#1D1D1B"/>
<path d="M34.406 62.811H33.912V63.7116H33.5853V62.811H32.2969V62.6723L33.6846 60.7324H33.9094V62.5178H34.4034V62.811H34.406ZM33.5853 61.6042L33.6271 61.2612H33.6141L33.4677 61.5466L32.8771 62.3477L32.6758 62.5519L32.9685 62.5178H33.5827V61.6042H33.5853Z" fill="#1D1D1B"/>
<path fill-rule="evenodd" clip-rule="evenodd" d="M19.3891 35.4804C20.7612 36.2213 20.8997 38.368 19.065 39.9099H19.3238C23.6099 39.9649 24.3652 33.8521 27.3838 35.4804C28.7533 36.2213 28.8944 38.3601 27.0702 39.9021H27.3524C31.6255 39.9204 32.373 33.8573 35.3785 35.4804C36.7453 36.2187 36.8891 38.3523 35.0753 39.8916H35.3785C39.892 40.067 40.3781 33.8626 43.3732 35.4804C44.7374 36.2161 44.8812 38.3444 43.0805 39.8838H43.4019C46.0311 39.834 45.9788 37.9203 47.3614 36.6873L40.3859 24.5088H17.8445L11.397 35.4804C12.7717 36.2239 12.9076 38.3758 11.0625 39.9178H11.2977C15.346 39.944 16.3601 33.8442 19.3891 35.4804Z" fill="white"/>
<path d="M29.0906 2.83781L59.8488 62.1334H49.4053V63.4423H61.9997L29.0906 0L6.64062 43.2792H8.11464L29.0906 2.83781Z" fill="white"/>
</svg>
