<?xml version="1.0" encoding="utf-8"?><svg viewBox="0 0 800 800" xmlns="http://www.w3.org/2000/svg" xmlns:xlink="http://www.w3.org/1999/xlink"><style>:root>svg{display:none}:root>svg:target{display:block}</style><svg viewBox="0 0 22 11" id="arrow" xmlns="http://www.w3.org/2000/svg"><path d="M1 .667l8.821 8.821c.651.65 1.707.65 2.357 0L21 .667"/></svg><svg viewBox="0 0 57 38" id="check" xmlns="http://www.w3.org/2000/svg"><path d="M55.166 1.333l-34.31 34.31a3.333 3.333 0 01-4.713 0l-14.31-14.31"/></svg><svg viewBox="0 0 55 29" id="e-arrow" xmlns="http://www.w3.org/2000/svg"><path d="M3.305 1.38l.203-.456A1.883 1.883 0 002.793.79C2.58.788 2.3.814 2.082.923c-.352.174-.684.509-.825.872-.089.217-.11.465-.097.679.012.217.063.46.172.664l.005.01.005.008a.54.54 0 00.055.078.757.757 0 00.069.072c.029.028.067.065.114.108a200.415 200.415 0 001.788 1.614 876.001 876.001 0 004.515 3.997 1386.81 1386.81 0 014.484 3.961 333.32 333.32 0 011.46 1.303l-.098.087c-.321.29-.787.704-1.362 1.215-1.15 1.022-2.737 2.425-4.484 3.961a875.046 875.046 0 00-4.515 3.997c-.584.521-1.06.95-1.395 1.254a39.507 39.507 0 00-.507.468 1.637 1.637 0 00-.068.072.534.534 0 00-.056.078l-.005.009-.005.009a1.69 1.69 0 00-.166.627c-.017.198-.01.441.062.649.13.378.473.748.832.928l.007.004c.223.108.489.145.72.145.233 0 .497-.038.722-.139h.002a.649.649 0 00.107-.064l.057-.043a42.838 42.838 0 00.623-.52c.399-.34.952-.819 1.609-1.39 1.313-1.14 3.04-2.652 4.765-4.168a1108.07 1108.07 0 004.746-4.195c.65-.578 1.195-1.067 1.583-1.419a41.777 41.777 0 00.598-.554l.05-.051.001-.001a.635.635 0 00.072-.091l-.422-.269c.084-.132.105-.259.105-.61 0-.406-.01-.452-.158-.65-.236-.315-13.69-12.136-13.942-12.247zm0 0c-.263-.116-.779-.121-1-.01l1 .01zm18.109.002l.203-.457a1.883 1.883 0 00-.713-.134c-.214-.002-.494.024-.713.133-.352.174-.684.509-.825.872-.088.217-.11.465-.097.679.013.217.064.46.172.664l.005.01.005.008a.734.734 0 00.124.15l.114.108a232.366 232.366 0 001.789 1.614 878.348 878.348 0 004.515 3.997c1.746 1.537 3.333 2.94 4.483 3.961.576.511 1.04.926 1.362 1.215l.098.088-.098.087c-.321.29-.787.704-1.362 1.215-1.15 1.022-2.737 2.425-4.483 3.961a877.388 877.388 0 00-4.515 3.997c-.584.521-1.061.95-1.396 1.254a43.975 43.975 0 00-.507.469 1.544 1.544 0 00-.068.07v.001a.483.483 0 00-.056.078l-.005.009-.005.009a1.69 1.69 0 00-.166.627 1.65 1.65 0 00.062.649c.13.378.474.748.832.928l.007.004a1.7 1.7 0 00.72.145c.233 0 .497-.038.722-.139h.003a.67.67 0 00.106-.064h.001l.057-.043a42.426 42.426 0 00.623-.52c.398-.34.952-.819 1.608-1.39a1015.48 1015.48 0 004.765-4.169c1.725-1.516 3.446-3.036 4.746-4.194.65-.578 1.195-1.067 1.584-1.419a39.935 39.935 0 00.597-.554l.05-.051.002-.001a.643.643 0 00.071-.091l-.422-.269c.085-.132.106-.259.106-.61 0-.406-.01-.452-.158-.65-.237-.315-13.69-12.136-13.943-12.247zm0 0c-.263-.117-.779-.122-1-.01l1 .01zm18.11 0l.203-.457h-.001a1.883 1.883 0 00-.713-.134c-.214-.002-.494.024-.712.133-.353.174-.684.509-.826.872-.088.217-.11.465-.097.679.013.217.064.46.172.664l.005.01.005.008a.744.744 0 00.124.15l.114.108a232.366 232.366 0 001.789 1.614 874.11 874.11 0 004.515 3.997 1386.81 1386.81 0 014.484 3.961 356.894 356.894 0 011.46 1.303c-.032.027-.064.057-.098.087-.322.29-.787.704-1.362 1.215-1.15 1.022-2.737 2.425-4.484 3.961a873.159 873.159 0 00-4.515 3.997c-.584.521-1.061.95-1.396 1.254a41.33 41.33 0 00-.507.469 1.887 1.887 0 00-.067.07l-.001.001c-.005.006-.031.037-.056.078l-.005.009-.004.009c-.102.192-.15.429-.166.627a1.65 1.65 0 00.061.649c.13.378.474.748.832.928l.008.004c.222.108.489.145.72.145.233 0 .497-.038.722-.139h.002a.649.649 0 00.107-.064l.057-.043a43.51 43.51 0 00.623-.52c.398-.34.952-.819 1.609-1.39 1.313-1.14 3.04-2.652 4.765-4.169a1059.68 1059.68 0 004.745-4.194c.65-.578 1.196-1.067 1.584-1.419a40.795 40.795 0 00.598-.554l.05-.051.001-.001a.643.643 0 00.071-.091l-.421-.269c.084-.132.105-.259.105-.61 0-.406-.01-.452-.158-.65-.237-.315-13.69-12.136-13.942-12.247zm0 0c-.264-.117-.78-.122-1-.01l1 .01z"/></svg><svg viewBox="0 0 16 15" id="icon-building" xmlns="http://www.w3.org/2000/svg"><path d="M5.513.02c-.19.058-.375.17-.52.323C4.705.64 4.73-.01 4.73 7.39v6.589h1.464v-1.39c0-1.526 0-1.53.204-1.628.15-.074 3.05-.074 3.2 0 .204.099.204.102.204 1.628v1.39h1.464V7.39c0-7.399.024-6.75-.262-7.047a1.458 1.458 0 00-.33-.25L10.5.007 8.05.001C6.7-.002 5.56.007 5.512.02zm2.11 1.344v.32H6.195v-.639h1.43v.32zm2.18 0v.32h-1.43v-.639h1.429v.32zm-2.18 2.044v.32H6.195v-.64h1.43v.32zm2.18 0v.32h-1.43v-.64h1.429v.32zm-2.18 2.044v.32H6.195v-.64h1.43v.32zm2.18 0v.32h-1.43v-.64h1.429v.32zm-2.18 2.044v.32H6.195v-.64h1.43v.32zm2.18 0v.32h-1.43v-.64h1.429v.32zM7.622 9.54v.319H6.195V9.22h1.43v.32zm2.18 0v.319h-1.43V9.22h1.43v.32zM1.463 2.083a1.061 1.061 0 00-.613.508l-.12.22-.01 5.582-.006 5.585H4.39V2.035l-1.385.003c-1.096 0-1.423.01-1.542.045zM3.642 4.43v.32H1.837v-.64h1.805v.32zm0 2.044v.32H1.837v-.64h1.805v.32zm0 2.044v.32H1.837v-.64h1.805v.32zm0 2.043v.32H1.837v-.639h1.805v.32zm0 2.044v.32H1.837v-.639h1.805v.32zm7.97-4.598v5.972h3.677l-.007-5.58-.01-5.582-.089-.178a1.15 1.15 0 00-.527-.511l-.167-.077-1.437-.01-1.44-.01v5.976zm2.553-3.577v.32h-1.804v-.64h1.804v.32zm0 2.044v.32h-1.804v-.64h1.804v.32zm0 2.044v.32h-1.804v-.64h1.804v.32zm0 2.043v.32h-1.804v-.639h1.804v.32zm0 2.044v.32h-1.804v-.639h1.804v.32z"/><path d="M6.913 12.781v1.197h2.179v-2.394h-2.18v1.197zM0 14.649V15h16v-.702H0v.35z"/></svg><svg viewBox="0 0 17 17" id="icon-close" xmlns="http://www.w3.org/2000/svg"><g clip-path="url(#ea)"><path d="M16.792.207a.708.708 0 00-1.001 0L8.5 7.498 1.209.208a.708.708 0 00-1.002 1l7.291 7.29-7.29 7.292a.709.709 0 001.001 1.001l7.29-7.29 7.292 7.29a.708.708 0 001.001-1.001L9.502 8.5l7.29-7.291a.708.708 0 000-1.002z"/></g><defs><clipPath id="ea"><path d="M0 0h17v17H0z"/></clipPath></defs></svg><svg viewBox="0 0 16 15" id="icon-factory" xmlns="http://www.w3.org/2000/svg"><path d="M13.091.04c-.339.089-.68.338-.843.618-.064.113-.07.12-.135.105a1.332 1.332 0 00-.69.016c-.074.023-.097.023-.16-.002-.362-.144-.832.015-1.01.341-.028.052-.062.094-.075.094a.275.275 0 01-.084-.062C9.866.915 9.415.85 9.087 1a1.02 1.02 0 00-.46.446c-.048.115-.05.117-.112.096a.515.515 0 00-.314.033.625.625 0 00-.23.235.564.564 0 000 .393.73.73 0 00.233.232c.032.019.034.034.012.103a.978.978 0 00-.015.24.602.602 0 00.191.442.734.734 0 001.004.025c.11-.1.217-.287.217-.377 0-.08.036-.123.118-.138.07-.015.086-.006.195.09a.988.988 0 001.128.134l.103-.054.133.058c.258.113.517.144.74.088l.112-.03.08.112c.336.48.956.713 1.518.573a1.56 1.56 0 00.8-.507c.039-.05.05-.054.127-.037.111.027.381.025.501-.002.245-.055.511-.237.652-.448.112-.161.164-.324.179-.544a.958.958 0 00-.277-.774 1.107 1.107 0 00-.76-.36l-.175-.012-.026-.086A1.44 1.44 0 0014.1.16a1.466 1.466 0 00-1.01-.12zM7.872 6.198v2.603l-.219.125-.22.128-.013-.266a18.563 18.563 0 01-.018-.703 21.566 21.566 0 00-.017-.734l-.013-.293-.26.134-.484.249c-.124.065-.292.153-.375.195l-.526.272-.547.282c-.854.444-1.604.826-1.609.822a28.252 28.252 0 01-.051-.801l-.058-.977-.013-.18-1.724 1.12L0 9.293l.004 2.848.007 2.848 5.444.006 5.442.004V7.046l-.069.041a33.93 33.93 0 01-.738.423c-.004 0-.008-.88-.008-1.956V3.598h-2.21v2.6zm-1.18 4.994v.544H4.376v-1.088h2.316v.544zm-3.131.032v.554H1.244V10.67h2.317v.555zm6.413 0v.554H7.658V10.67h2.316v.555zm-3.282 2.008v.555H4.376v-1.109h2.316v.554zm-3.131.042v.554H1.244V12.72h2.317v.554zm6.413 0v.554H7.658V12.72h2.316v.554z"/></svg><svg viewBox="0 0 15 9" id="icon-mail" xmlns="http://www.w3.org/2000/svg"><path d="M.161.645a.393.393 0 00-.108.083C.006.78 0 1.014 0 4.445c0 3.346.003 3.672.05 3.79.129.338.433.609.811.72C.996 8.998 1.532 9 7.5 9s6.504-.003 6.639-.044c.378-.112.682-.383.811-.722.047-.117.05-.443.05-3.79 0-3.43-.006-3.664-.053-3.716-.114-.128-.293-.149-.45-.055-.162.1-4.351 3.274-5.59 4.238-.593.46-.727.557-.847.612a1.359 1.359 0 01-.956.055c-.249-.081-.322-.128-.85-.54C5.122 4.148.687.785.505.673A.377.377 0 00.16.645z"/></svg><svg viewBox="0 0 15 10" id="icon-mail2" xmlns="http://www.w3.org/2000/svg"><path d="M.161 1.645a.393.393 0 00-.108.083C.006 1.78 0 2.014 0 5.445c0 3.346.003 3.672.05 3.79.129.338.433.609.811.72.135.042.671.045 6.639.045s6.504-.003 6.639-.044c.378-.112.682-.383.811-.722.047-.117.05-.443.05-3.79 0-3.43-.006-3.664-.053-3.716-.114-.128-.293-.149-.45-.055-.162.1-4.351 3.274-5.59 4.238-.593.46-.727.557-.847.612a1.359 1.359 0 01-.956.055c-.249-.081-.322-.128-.85-.54C5.122 5.148.687 1.785.505 1.673a.377.377 0 00-.343-.028z"/><path d="M.827.05a1.36 1.36 0 00-.504.295c-.12.112-.16.265-.1.377.024.042.727.592 1.641 1.284a509.715 509.715 0 014.679 3.56c.32.25.636.477.703.503a.67.67 0 00.542-.02c.082-.042.442-.302.8-.581a447.33 447.33 0 014.544-3.462c.914-.692 1.617-1.242 1.64-1.284.062-.112.021-.265-.1-.377a1.39 1.39 0 00-.515-.297c-.16-.05-.304-.05-6.67-.047C1.228 0 .973.003.826.05z"/></svg><svg viewBox="0 0 24 40" id="icon-next" xmlns="http://www.w3.org/2000/svg"><path d="M.956.123c-.38.194-.729.574-.86.93-.155.388-.117 1.031.077 1.411.07.124 4.341 4.078 9.488 8.767 5.147 4.69 9.356 8.566 9.356 8.605 0 .038-4.209 3.914-9.356 8.604C4.514 33.13.243 37.083.173 37.207c-.17.333-.225.992-.108 1.34.124.373.488.792.86.985.388.194 1.085.194 1.504 0 .38-.178 20.394-18.402 20.62-18.782.123-.201.154-.395.154-.93 0-.62-.015-.69-.232-.992C22.62 18.348 2.8.309 2.429.138 2.04-.038 1.282-.046.956.124z"/></svg><svg viewBox="0 0 32 32" id="icon-pdf" xmlns="http://www.w3.org/2000/svg"><g stroke-miterlimit="10" stroke-width="8.69"><path d="M23.977.38H8.513a.77.762 0 00-.77.762v29.714c0 .42.345.761.77.761h22.326c.426 0 .771-.342.771-.762V7.935a.76.76 0 00-.226-.54L24.521.606a.77.762 0 00-.544-.224z"/><path d="M23.977.38v6.857a.77.763 0 00.77.763h6.929"/></g><path d="M26.903 24.786c-.008-.098-.099-1.29-2.24-1.24-2.136.049-2.659.18-2.659.18s-1.594-1.602-2.175-2.843c0 0 .705-2.047.672-3.329-.034-1.282-.34-2.021-1.338-2.013-.995.008-1.137.87-1.012 2.153.116 1.15.723 2.507.723 2.507s-.458 1.413-1.072 2.826c-.606 1.415-1.022 2.154-1.022 2.154s-2.059.682-2.947 1.504c-.889.822-1.255 1.454-.789 2.087.406.543 1.818.666 3.089-.978 1.262-1.644 1.835-2.67 1.835-2.67s1.935-.526 2.533-.667c.598-.14 1.329-.254 1.329-.254s1.76 1.759 3.463 1.692c1.702-.065 1.62-1.01 1.61-1.109zm-13.42 3.707c-1.053-.625 2.218-2.556 2.816-2.622 0 0-1.703 3.28-2.815 2.622zm5.033-11.259c0-1.02.332-1.29.59-1.29.257 0 .548.122.556 1.002.009.88-.556 2.605-.556 2.605-.192-.205-.59-1.306-.59-2.317zm1.37 6.961c-1.063.254-1.594.526-1.594.526l.432-.962c.431-.961.88-2.276.88-2.276.598 1.109 1.794 2.416 1.794 2.416s-.449.032-1.512.295zm2.55-.091s3.455-.616 3.455.55c0 1.16-2.143.683-3.455-.55zM-.005 3.896H21.9v10.016H-.005z" class="jst3"/><text x="-5.15" y="232.56" font-weight="400" font-size="119.42" letter-spacing="0" word-spacing="0" font-family="Arial" stroke-width="14.93" transform="matrix(.0837 0 0 .08284 1.445 -6.775)"><tspan x="-5.15" y="232.56" font-weight="700">PDF</tspan></text></svg><svg viewBox="0 0 120 120" id="icon-play" xmlns="http://www.w3.org/2000/svg"><path d="M87.133 54.622c4.452 2.203 4.452 8.553 0 10.755L48.911 84.293c-3.988 1.973-8.661-.928-8.661-5.378v-37.83c0-4.45 4.673-7.351 8.661-5.378l38.222 18.915z"/></svg><svg viewBox="0 0 24 40" id="icon-prev" xmlns="http://www.w3.org/2000/svg"><path d="M22.247 39.554c.38-.193.729-.573.86-.93.155-.387.117-1.03-.077-1.41-.07-.125-4.34-4.078-9.488-8.768-5.147-4.69-9.356-8.565-9.356-8.604 0-.039 4.209-3.914 9.356-8.604 5.147-4.69 9.418-8.643 9.488-8.767.17-.333.225-.992.108-1.341-.124-.372-.488-.79-.86-.985-.387-.193-1.085-.193-1.504 0C20.394.324.38 18.548.155 18.927c-.124.202-.155.396-.155.93 0 .62.016.69.233.993.348.48 20.17 18.518 20.541 18.689.388.178 1.148.186 1.473.015z"/></svg><svg viewBox="0 0 30 30" id="icon-search" xmlns="http://www.w3.org/2000/svg"><g clip-path="url(#ma)"><path d="M25.731 24.435l-5.472-5.471a9.181 9.181 0 10-1.296 1.296l5.472 5.471a.917.917 0 001.296-1.296zM13.166 20.5a7.333 7.333 0 117.334-7.333 7.342 7.342 0 01-7.334 7.333z"/></g><defs><clipPath id="ma"><path transform="translate(4 4)" d="M0 0h22v22H0z"/></clipPath></defs></svg><svg viewBox="0 0 12 12" id="icon-tel" xmlns="http://www.w3.org/2000/svg"><path d="M1.697.036C1.57.08 1.429.202.918.709c-.564.56-.71.78-.843 1.282-.08.3-.099.914-.043 1.3.232 1.56 1.383 3.533 3.073 5.26 1.91 1.956 3.987 3.203 5.696 3.428.337.044.935.016 1.207-.057.504-.133.722-.276 1.282-.841.675-.682.71-.734.71-1.074 0-.32.007-.311-1.2-1.514-1.2-1.195-1.137-1.146-1.495-1.146-.293.002-.357.04-.823.494-.406.397-.511.472-.764.537-.396.103-.713-.004-1.449-.492a7.061 7.061 0 01-1.183-.973 7.061 7.061 0 01-.973-1.184c-.487-.736-.595-1.052-.492-1.448.065-.256.14-.361.537-.767.438-.445.485-.522.501-.794a.66.66 0 00-.042-.319c-.05-.134-.108-.197-1.111-1.203C2.294-.018 2.313-.004 1.982.001c-.105 0-.232.016-.285.035z"/></svg><svg viewBox="0 0 16 16" id="office" xmlns="http://www.w3.org/2000/svg"><path d="M14 15V4h-3V1H2v14H0v1h7v-3h2v3h7v-1h-2zm-8-4H4V9h2v2zm0-3H4V6h2v2zm0-3H4V3h2v2zm3 6H7V9h2v2zm0-3H7V6h2v2zm0-3H7V3h2v2zm4 6h-2V9h2v2zm0-3h-2V6h2v2z"/></svg><svg viewBox="0 0 292.074 292.073" id="production-plant" xmlns="http://www.w3.org/2000/svg"><path d="M190.166 182.858h-23.509c-4.863 0-8.814 3.945-8.814 8.814a8.813 8.813 0 008.814 8.815h23.509c4.864 0 8.821-3.939 8.821-8.815 0-4.874-3.957-8.814-8.821-8.814zm44.862 0h-24.235c-4.864 0-8.815 3.945-8.815 8.814a8.813 8.813 0 008.815 8.815h24.235c4.863 0 8.803-3.939 8.803-8.815 0-4.874-3.94-8.814-8.803-8.814zM60.415 106.727h77.5a8.81 8.81 0 008.815-8.812 8.81 8.81 0 00-8.815-8.817h-77.5a8.814 8.814 0 00-8.818 8.817c-.001 4.869 3.947 8.812 8.818 8.812z"/><path d="M283.247 265.34h-11.518V116.655c0-4.87-3.957-8.818-8.821-8.818h-19.077V17.909c0-4.87-3.951-8.818-8.814-8.818h-24.235c-4.864 0-8.815 3.948-8.815 8.818v89.928h-7.752V17.909c0-4.87-3.957-8.818-8.821-8.818h-24.229c-4.863 0-8.809 3.948-8.809 8.818v89.928H29.166c-4.87 0-8.824 3.948-8.824 8.818V265.34H8.818A8.815 8.815 0 000 274.167a8.812 8.812 0 008.818 8.815h274.441c4.864 0 8.815-3.945 8.815-8.815a8.823 8.823 0 00-8.827-8.827zm-214.024 0v-64.857h59.862v64.857H69.223z"/></svg><svg viewBox="0 0 80 80" id="thumb-up" xmlns="http://www.w3.org/2000/svg"><path d="M46.667 33.333h15.88a6.667 6.667 0 015.963 9.647L56.843 66.313A6.666 6.666 0 0150.877 70h-13.39a6.63 6.63 0 01-1.617-.2l-12.537-3.133m23.334-33.334V16.667A6.667 6.667 0 0040 10h-.317a3.016 3.016 0 00-3.016 3.017c0 2.38-.704 4.706-2.027 6.686L23.333 36.667v30m23.334-33.334H40M23.333 66.667h-6.666A6.667 6.667 0 0110 60V40a6.667 6.667 0 016.667-6.667H25"/></svg></svg>